<svg width="40" height="40" viewBox="0 0 40 40" fill="none" xmlns="http://www.w3.org/2000/svg">
<path d="M29 32C18.6341 24.8731 4 20.0012 4 20.0012C4 20.0012 18.6341 15.3706 29 8" stroke="black" stroke-width="2"/>
<circle cx="26" cy="17" r="2" fill="black"/>
<circle cx="19" cy="24" r="2" fill="black"/>
<path d="M29.3301 8.97949C28.8971 7.49247 30.008 6 31.4756 6C32.3762 6.00017 33.1511 6.55713 33.415 7.37793C34.3963 10.4305 36 16.0494 36 20C36 23.9506 34.3963 29.5695 33.415 32.6221C33.1511 33.4429 32.3762 33.9998 31.4756 34C30.008 34 28.8971 32.5075 29.3301 31.0205C30.2509 27.8581 31.333 23.4325 31.333 20C31.333 16.5675 30.2509 12.1419 29.3301 8.97949Z" stroke="black" stroke-width="2"/>
</svg>
