<svg width="91" height="12" viewBox="0 0 91 12" fill="none" xmlns="http://www.w3.org/2000/svg">
<path d="M44.1748 7.12695C44.1748 8.53234 45.2541 9.72936 46.626 9.72949C47.3035 9.72949 47.7387 9.55332 48.3242 9.21875V0.911133L47.8389 0.0917969H50.2656V9.34473C49.9478 9.604 49.6046 9.82954 49.2617 10.0303C48.057 10.7665 47.2032 11.2598 45.7559 11.2598C43.8235 11.2596 42.2178 9.76243 42.2178 7.71289V0.911133L41.7568 0.0917969H44.1748V7.12695ZM61.0059 7.79688V1.02051C61.0059 0.903386 60.6374 0.225651 60.5537 0.0917969H62.5615V11.0508H60.8213L55.376 3.3291V11.043H53.8281V1.05371L53.1758 0.0917969H55.5762L61.0059 7.79688ZM21.0938 4.60059H25.4854V0.911133L25.0254 0.0917969H27.4434V11.043H25.4854V6.12305H21.0938V11.043H19.1357V0.911133L18.6758 0.0917969H21.0938V4.60059ZM35.04 4.88477L37.3232 0.911133L37.0303 0.0917969H39.5742L35.7754 6.61719V11.043H33.8184V6.68359L29.9697 0.0917969H32.3037L35.04 4.88477ZM69.9834 0.0917969C72.7773 0.092023 75.094 2.36713 75.1025 5.29492C75.1025 7.19391 74.1492 8.84205 72.6016 9.8125C72.3088 9.98815 72.0158 10.1721 71.7314 10.3311C70.9368 10.8078 70.0334 11.0429 69.1133 11.043H65.9502V0.911133L65.4902 0.0917969H69.9834ZM81.9971 0.0917969L86.6484 11.043H84.5234L83.2354 8.02246H78.8428L77.915 10.2139L78.2158 11.043H75.915L80.2324 0.911133L79.8809 0.0917969H81.9971ZM90.7881 11.043H88.8389V0.911133L88.3711 0.0917969H90.7881V11.043ZM67.9082 9.55371H69.874C70.4345 9.55371 70.9869 9.5195 71.4805 9.20996C72.5679 8.51555 73.1035 7.11877 73.1035 5.83887C73.1035 3.45464 71.2878 1.58105 69.0039 1.58105H67.9082V9.55371ZM4.19434 3.57227H3.08105V8.01367H2.16113V3.57227H0.789062L1.05664 2.87793H4.45312L4.19434 3.57227ZM6.7793 4.98535H8.8457V3.25391L8.62793 2.87793H9.76562V8.01367H8.8457V5.69727H6.7793V8.01367H5.85938V3.25391L5.6582 2.87793H6.7793V4.98535ZM14.1494 3.57227H12.2422V5.00195H14.4092L14.1494 5.69727H12.2422V7.31152H14.4092L14.1494 8.01367H11.3213V3.25391L11.1045 2.87793H14.4092L14.1494 3.57227ZM79.4795 6.56641H82.625L81.0518 2.86914L79.4795 6.56641Z" fill="white"/>
</svg>
