<svg width="49" height="48" viewBox="0 0 49 48" fill="none" xmlns="http://www.w3.org/2000/svg">
<circle cx="24.5" cy="24" r="18.5" stroke="white" stroke-width="2"/>
<path d="M27.4143 20.5727C27.4143 19.9511 27.3722 19.4561 27.288 19.0878C27.2158 18.7194 27.0774 18.3856 26.8729 18.0863V18H30.5V18.0863C30.2955 18.3971 30.1511 18.7367 30.0669 19.105C29.9947 19.4734 29.9586 19.9626 29.9586 20.5727V27.4101C29.9586 28.0317 29.9947 28.5266 30.0669 28.895C30.1511 29.2633 30.2955 29.6029 30.5 29.9137V30H26.8729V29.9137C27.0774 29.6144 27.2158 29.2806 27.288 28.9122C27.3722 28.5439 27.4143 28.0432 27.4143 27.4101V20.5727ZM19.0414 20.5727C19.0414 19.9626 18.9992 19.4734 18.915 19.105C18.8429 18.7367 18.7045 18.3971 18.5 18.0863V18H22.1271V18.0863C21.9226 18.3856 21.7782 18.7194 21.694 19.0878C21.6218 19.4561 21.5857 19.9511 21.5857 20.5727V27.4101C21.5857 28.0432 21.6218 28.5439 21.694 28.9122C21.7782 29.2806 21.9226 29.6144 22.1271 29.9137V30H18.5V29.9137C18.7045 29.6029 18.8429 29.2633 18.915 28.895C18.9992 28.5266 19.0414 28.0317 19.0414 27.4101V20.5727ZM20.3947 24.7683V23.1971H27.9737V24.7683H20.3947Z" fill="white"/>
</svg>
