<svg width="40" height="40" viewBox="0 0 40 40" fill="none" xmlns="http://www.w3.org/2000/svg">
<path d="M30.5762 15C30.202 16.2038 29.872 17.6624 29.585 19.208C29.1703 21.4412 28.8268 23.9341 28.5527 26.2578C28.2784 28.5836 28.0725 30.7509 27.9355 32.3359C27.8778 33.004 27.8333 33.5693 27.7998 34H12.2002C12.1668 33.5693 12.123 33.004 12.0654 32.3359C11.9288 30.7508 11.7233 28.5836 11.4492 26.2578C11.1754 23.9341 10.8319 21.4413 10.417 19.208C10.1299 17.6625 9.79953 16.2039 9.4248 15C16.6501 14.9999 25.8121 15.0001 30.5762 15Z" stroke="black" stroke-width="2"/>
<path d="M29.6738 11L28.2451 6H11.7549L10.3262 11H29.6738Z" stroke="black" stroke-width="2"/>
<path d="M33 11V15H7V11H33Z" stroke="black" stroke-width="2"/>
<ellipse cx="20" cy="23" rx="2" ry="3" fill="black"/>
</svg>
