<svg width="66" height="21" viewBox="0 0 66 21" fill="none" xmlns="http://www.w3.org/2000/svg">
<path d="M65.7015 20.3515V10.499H63.5L63.9265 11.2384V20.3515H65.7015Z" fill="black"/>
<path d="M40.029 20.3404V10.4879H38.2036C38.277 10.6059 38.6164 11.2137 38.6164 11.3226V17.4146L33.6675 10.4834H31.4844L32.0806 11.3543V20.3404H33.4887V13.3956L38.4467 20.3404H40.029Z" fill="#231F20"/>
<path d="M28.8371 18.8072V10.4834H26.6264L27.0621 11.2228V18.6984C26.5301 18.9978 26.1311 19.1611 25.5165 19.1611C24.269 19.1611 23.2874 18.086 23.2874 16.8249V10.4879H21.0859L21.5033 11.2273V17.3466C21.5033 19.1883 22.9618 20.54 24.723 20.54C26.0393 20.54 26.819 20.1 27.9152 19.4378C28.2271 19.2472 28.539 19.0522 28.8279 18.8118" fill="#231F20"/>
<path d="M19.1201 10.499H16.8039L17.0653 11.2384L14.9876 14.8084L12.5018 10.499H10.3828L13.8823 16.4232V20.3515H15.6619V16.3688L19.1201 10.499Z" fill="black"/>
<path d="M8.07287 20.3515V10.499H5.88053L6.2979 11.2384V14.5543H2.29849V10.499H0.101562L0.518932 11.2384V20.3515H2.29849V15.9288H6.2979V20.3515H8.07287Z" fill="black"/>
<path d="M46.7786 10.4879H42.6875L43.1049 11.2273V20.3404H45.9806C46.8153 20.3404 47.6363 20.1318 48.361 19.6963C48.6224 19.5557 48.8838 19.3924 49.1499 19.2336C50.5579 18.3627 51.4247 16.8748 51.4247 15.1692C51.4247 12.5292 49.3196 10.4834 46.7786 10.4834M48.1362 18.6938C47.6868 18.9751 47.1868 19.0068 46.6732 19.0068H44.8844V11.8352H45.8843C47.9665 11.8352 49.6131 13.5226 49.6131 15.6682C49.6131 16.8159 49.1269 18.0678 48.1362 18.6984" fill="black"/>
<path d="M57.7078 10.4879H55.7814L56.0979 11.2273L52.1719 20.3404H54.2679L53.9927 19.5965L54.8366 17.6278H58.836L60.0056 20.3404H61.9411L57.7078 10.4834V10.4879ZM55.4145 16.3078L56.8501 12.9828L58.2857 16.3078H55.4191H55.4145Z" fill="black"/>
<path d="M26.1103 0.186523L25.8672 0.812512H27.1147V4.80886H27.9586V0.812512H28.9631L29.2016 0.186523H26.1103Z" fill="black"/>
<path d="M32.9951 0.186523L33.1923 0.526735V2.08717H31.3164V0.186523H30.2891L30.4771 0.526735V4.80886H31.3164V2.7313H33.1923V4.80886H34.027V0.186523H32.9951Z" fill="black"/>
<path d="M35.25 0.186523L35.4472 0.526735V4.80886H38.0202L38.2541 4.17833H36.2865V2.7313H38.0202L38.2541 2.10078H36.2865V0.812512H38.0202L38.2541 0.186523H35.25Z" fill="black"/>
</svg>
