<svg width="49" height="48" viewBox="0 0 49 48" fill="none" xmlns="http://www.w3.org/2000/svg">
<rect x="9.00391" y="16.75" width="30.9956" height="6.45742" stroke="white" stroke-width="2"/>
<path d="M11.5859 23.2031C12.0164 25.3556 12.8774 31.4686 12.8774 38.7009H36.1241C36.1241 35.6875 36.3824 28.3691 37.4156 23.2031" stroke="white" stroke-width="2"/>
<path d="M24.5 16.75V38.7052" stroke="white" stroke-width="2"/>
<path d="M13.7023 16.3498C12.895 15.5424 12.4414 14.4474 12.4414 13.3057C12.4414 12.164 12.895 11.069 13.7023 10.2616C14.5096 9.45431 15.6046 9.00075 16.7464 9.00075C18.4075 8.97181 20.0354 9.77781 21.4176 11.3136C22.7999 12.8495 23.8724 15.0439 24.4953 17.6106C25.1181 15.0439 26.1906 12.8495 27.5729 11.3136C28.9551 9.77781 30.583 8.97181 32.2442 9.00075C33.3859 9.00075 34.4809 9.45431 35.2882 10.2616C36.0955 11.069 36.5491 12.164 36.5491 13.3057C36.5491 14.4474 36.0955 15.5424 35.2882 16.3498" stroke="white" stroke-width="2"/>
</svg>
