<svg width="74" height="28" viewBox="0 0 74 28" fill="none" xmlns="http://www.w3.org/2000/svg">
<path fill-rule="evenodd" clip-rule="evenodd" d="M13.0993 1C17.1017 1 20.6212 2.63518 23.017 5.34482V5.35109L20.2487 7.95109C18.4874 5.98073 16.0191 4.71831 13.0993 4.71831C8.04898 4.71831 3.81932 8.99108 3.81932 14.0031C3.81932 19.0152 8.04583 23.2879 13.0993 23.2879C16.0191 23.2879 18.5632 22.06 20.2487 20.0928L23.1305 22.5424C20.7349 25.2928 17.1774 27 13.0993 27C5.83946 27 0 21.2424 0 14C0 6.75759 5.83946 1 13.0993 1ZM38.9979 1C46.2578 1 52.094 6.82964 52.094 14C52.094 21.1703 46.2546 27 38.9947 27C31.7349 27 25.8954 21.1673 25.8954 14C25.8954 6.83277 31.7759 1 38.9979 1ZM39.0357 23.2849C44.124 23.2849 48.2811 18.9776 48.2811 14C48.2811 9.02241 44.1272 4.71518 39.0357 4.71518C33.9444 4.71518 29.7178 8.98795 29.7178 14C29.7178 19.012 33.9475 23.2849 39.0357 23.2849ZM58.1703 20.4217L55.6641 23.3193C57.9841 25.8441 61.2763 26.9968 64.72 26.9968C69.5841 26.9968 74 23.9865 74 19.4193C74 14.6283 69.5977 13.2141 65.7311 11.9719C62.7035 10.9993 60.0043 10.1322 60.0043 7.83204C60.0043 5.71446 62.1002 4.71205 64.7579 4.71205C66.9674 4.71205 69.1359 5.71446 70.6352 6.86723L72.6175 3.82241C70.3733 2.00241 67.564 1 64.6853 1C60.4935 1 56.1881 3.44964 56.1881 7.90723C56.1881 12.7205 60.6313 14.1375 64.5108 15.3746C67.5166 16.3332 70.1839 17.1838 70.1839 19.4224C70.1839 22.0944 67.4535 23.2848 64.72 23.2848C62.2516 23.2848 59.6318 21.8752 58.1703 20.4249V20.4217Z" fill="black"/>
</svg>
