<svg width="32" height="32" viewBox="0 0 32 32" fill="none" xmlns="http://www.w3.org/2000/svg">
<rect width="32" height="32" rx="16" fill="#F2F2F2"/>
<path d="M18.5246 9.75952C19.1192 9.01834 19.5212 8.02173 19.4123 7C18.5455 7.04187 17.4818 7.57368 16.8704 8.31485C16.3176 8.95134 15.8319 9.98982 15.9575 10.9655C16.9332 11.0492 17.909 10.4798 18.5204 9.75533" fill="#231F20"/>
<path d="M19.4028 11.1579C17.9873 11.0742 16.7813 11.9619 16.1071 11.9619C15.4328 11.9619 14.3943 11.1998 13.2762 11.2207C11.8189 11.2417 10.4662 12.0666 9.72501 13.3773C8.20488 15.9986 9.323 19.8929 10.8054 22.0285C11.5257 23.0837 12.3926 24.2478 13.5316 24.2059C14.6121 24.1641 15.0308 23.5066 16.3416 23.5066C17.6523 23.5066 18.0334 24.2059 19.1724 24.185C20.3576 24.1641 21.0946 23.1256 21.8149 22.0704C22.6399 20.8644 22.9791 19.7003 23 19.6375C22.9791 19.6165 20.7177 18.7497 20.6968 16.1493C20.6758 13.9719 22.4724 12.9376 22.5561 12.8706C21.5427 11.3715 19.9555 11.1998 19.407 11.1579" fill="#231F20"/>
</svg>
