<svg width="67" height="28" viewBox="0 0 67 28" fill="none" xmlns="http://www.w3.org/2000/svg">
<path d="M1.22985 0.464073V28H5.99646V0.464073H1.22985ZM16.8751 0.464073V28H21.6417V0.464073H16.8751ZM31.1365 9.66894L25.1782 13.406V13.7993C25.9855 13.878 26.4083 15.3728 26.4083 17.261V28H31.1365V9.66894ZM3.19031 12.0292V15.8055H20.6807V12.0292H3.19031ZM1.22985 4.59446C1.22985 3.41435 1.8449 1.84087 1.8449 0.464073H-0.000244141V0.857444C0.807005 1.40816 1.22985 2.70629 1.22985 4.59446ZM5.99646 4.59446C5.99646 2.70629 6.41931 1.40816 7.22656 0.857444V0.464073H5.38142C5.38142 1.84087 5.99646 3.41435 5.99646 4.59446ZM16.8751 4.59446C16.8751 3.41435 17.4901 1.84087 17.4901 0.464073H15.645V0.857444C16.4523 1.40816 16.8751 2.70629 16.8751 4.59446ZM21.6417 4.59446C21.6417 2.70629 22.0646 1.40816 22.8718 0.857444V0.464073H21.0267C21.0267 1.84087 21.6417 3.41435 21.6417 4.59446ZM1.22985 23.8696C1.22985 25.7578 0.807005 27.0559 -0.000244141 27.6066V28H1.8449C1.8449 26.6232 1.22985 25.0497 1.22985 23.8696ZM5.99646 23.8696C5.99646 25.0497 5.38142 26.6232 5.38142 28H7.22656V27.6066C6.41931 27.0559 5.99646 25.7578 5.99646 23.8696ZM16.8751 23.8696C16.8751 25.7578 16.4523 27.0559 15.645 27.6066V28H17.4901C17.4901 26.6232 16.8751 25.0497 16.8751 23.8696ZM21.6417 23.8696C21.6417 25.0497 21.0267 26.6232 21.0267 28H22.8718V27.6066C22.0646 27.0559 21.6417 25.7578 21.6417 23.8696ZM26.4083 23.8696C26.4083 25.7578 25.9855 27.0559 25.1782 27.6066V28H27.0234C27.0234 26.6232 26.4083 25.0497 26.4083 23.8696ZM31.1365 23.8696C31.1365 25.0497 30.5215 26.6232 30.5215 28H32.3666V27.6066C31.5593 27.0559 31.1365 25.7578 31.1365 23.8696ZM35.9031 0.464073V28H40.6697V0.464073H35.9031ZM51.5484 0.464073V28H56.315V0.464073H51.5484ZM65.8098 9.66894L59.8515 13.406V13.7993C60.6587 13.878 61.0816 15.3728 61.0816 17.261V28H65.8098V9.66894ZM37.8636 12.0292V15.8055H55.354V12.0292H37.8636ZM35.9031 4.59446C35.9031 3.41435 36.5182 1.84087 36.5182 0.464073H34.673V0.857444C35.4803 1.40816 35.9031 2.70629 35.9031 4.59446ZM40.6697 4.59446C40.6697 2.70629 41.0926 1.40816 41.8998 0.857444V0.464073H40.0547C40.0547 1.84087 40.6697 3.41435 40.6697 4.59446ZM51.5484 4.59446C51.5484 3.41435 52.1634 1.84087 52.1634 0.464073H50.3183V0.857444C51.1255 1.40816 51.5484 2.70629 51.5484 4.59446ZM56.315 4.59446C56.315 2.70629 56.7378 1.40816 57.5451 0.857444V0.464073H55.6999C55.6999 1.84087 56.315 3.41435 56.315 4.59446ZM35.9031 23.8696C35.9031 25.7578 35.4803 27.0559 34.673 27.6066V28H36.5182C36.5182 26.6232 35.9031 25.0497 35.9031 23.8696ZM40.6697 23.8696C40.6697 25.0497 40.0547 26.6232 40.0547 28H41.8998V27.6066C41.0926 27.0559 40.6697 25.7578 40.6697 23.8696ZM51.5484 23.8696C51.5484 25.7578 51.1255 27.0559 50.3183 27.6066V28H52.1634C52.1634 26.6232 51.5484 25.0497 51.5484 23.8696ZM56.315 23.8696C56.315 25.0497 55.6999 26.6232 55.6999 28H57.5451V27.6066C56.7378 27.0559 56.315 25.7578 56.315 23.8696ZM61.0816 23.8696C61.0816 25.7578 60.6587 27.0559 59.8515 27.6066V28H61.6966C61.6966 26.6232 61.0816 25.0497 61.0816 23.8696ZM65.8098 23.8696C65.8098 25.0497 65.1947 26.6232 65.1947 28H67.0399V27.6066C66.2326 27.0559 65.8098 25.7578 65.8098 23.8696Z" fill="black"/>
</svg>
