<svg width="48" height="20" viewBox="0 0 48 20" fill="none" xmlns="http://www.w3.org/2000/svg">
<rect width="48" height="20" fill="white"/>
<path d="M22.7527 7.9668C21.5698 7.9668 20.4915 8.43157 19.7604 9.32196V8.09735H18.8047V18.7428H19.7865V14.4397C20.4993 15.3562 21.5698 15.8654 22.7527 15.8654C24.9329 15.8654 26.7033 14.0951 26.7033 11.9174C26.7033 9.73974 24.9329 7.9668 22.7527 7.9668ZM22.7266 14.9463C21.032 14.9463 19.7316 13.5911 19.7316 11.9174C19.7316 10.2437 21.032 8.88591 22.7266 8.88591C24.4212 8.88591 25.7189 10.2437 25.7189 11.9174C25.7189 13.5911 24.4186 14.9463 22.7266 14.9463Z" fill="#231F20"/>
<path d="M10.5433 2C9.11766 2 7.96094 3.15672 7.96094 4.57977C7.96094 6.00282 9.11766 7.15954 10.5433 7.15954C11.969 7.15954 13.1231 6.00543 13.1231 4.57977C13.1231 3.15411 11.969 2 10.5433 2Z" fill="#231F20"/>
<path d="M6.03932 7.96407C5.23772 7.96407 4.49355 8.28001 3.95305 8.83618V4.58008H3V15.7321H3.97916V10.5647C3.97916 9.51506 5.03927 8.88318 5.98188 8.88318C7.10465 8.88318 7.77571 9.61428 7.77571 10.6639V15.7321H8.76009V10.6639C8.76009 9.07379 7.6791 7.96407 6.03932 7.96407Z" fill="#231F20"/>
<path d="M41.673 15.7286L44.9969 8.11464H43.9968L41.1742 14.5823L38.3438 8.09375H37.3438L40.6729 15.7286L39.3726 18.7392H40.3726L41.673 15.7286H41.6756H41.673Z" fill="#231F20"/>
<path d="M35.9728 8.09735H35.0171V9.32196C34.286 8.43418 33.2076 7.9668 32.0248 7.9668C29.8445 7.9668 28.0742 9.73451 28.0742 11.9174C28.0742 14.1003 29.8445 15.8654 32.0248 15.8654C33.2076 15.8654 34.2782 15.3588 34.991 14.4397V15.7322H35.9728V8.09735ZM32.0509 14.9463C30.3563 14.9463 29.0586 13.5911 29.0586 11.9174C29.0586 10.2437 30.3589 8.88591 32.0509 8.88591C33.7429 8.88591 35.0459 10.2437 35.0459 11.9174C35.0459 13.5911 33.7455 14.9463 32.0509 14.9463Z" fill="#1D1D1B"/>
</svg>
