<svg width="110" height="18" viewBox="0 0 110 18" fill="none" xmlns="http://www.w3.org/2000/svg">
<path d="M1.32 5.33L1 6.16H2.64V11.47H3.74V6.16H5.07L5.38 5.33H1.32Z" fill="black"/>
<path d="M10.3703 5.33008L10.6303 5.78008V7.85008H8.16031V5.33008H6.82031L7.06031 5.78008V11.4701H8.16031V8.70008H10.6303V11.4701H11.7303V5.33008H10.3703Z" fill="black"/>
<path d="M13.3281 5.33008L13.5881 5.78008V11.4701H16.9681L17.2781 10.6301H14.6881V8.70008H16.9681L17.2781 7.87008H14.6881V6.16008H16.9681L17.2781 5.33008H13.3281Z" fill="black"/>
<path d="M108.581 15.09V2H105.691L106.251 2.98V15.09H108.581Z" fill="black"/>
<path d="M74.8372 15.09V2H72.4372C72.5372 2.16 72.9772 2.97 72.9772 3.11V11.21L66.4872 2H63.6172L64.3972 3.15V15.09H66.2472V5.87L72.7572 15.1H74.8372V15.09Z" fill="black"/>
<path d="M60.1387 13.06V2H57.2388L57.8187 2.98V12.91C57.1187 13.31 56.5987 13.52 55.7887 13.52C54.1487 13.52 52.8587 12.09 52.8587 10.41V2H49.9688L50.5187 2.98V11.11C50.5187 13.56 52.4387 15.35 54.7487 15.35C56.4787 15.35 57.4987 14.76 58.9387 13.88C59.3487 13.64 59.7587 13.37 60.1387 13.06Z" fill="black"/>
<path d="M47.3589 2H44.3189L44.6689 2.98L41.9389 7.73L38.6689 2H35.8789L40.4789 9.88V15.09H42.8189V9.8L47.3589 2Z" fill="black"/>
<path d="M32.8589 15.09V2H29.9689L30.5189 2.98V7.39H25.2689V2H22.3789L22.9289 2.98V15.09H25.2689V9.21H30.5189V15.09H32.8589Z" fill="black"/>
<path d="M83.71 2H78.34L78.89 2.98V15.09H82.67C83.77 15.09 84.85 14.81 85.8 14.24C86.14 14.05 86.49 13.83 86.84 13.62C88.69 12.46 89.83 10.49 89.83 8.22C89.82 4.72 87.05 2 83.71 2ZM85.5 12.9C84.91 13.27 84.25 13.31 83.58 13.31H81.23V3.78H82.54C85.27 3.78 87.44 6.02 87.44 8.87C87.44 10.4 86.8 12.07 85.5 12.9Z" fill="black"/>
<path d="M98.0708 2H95.5408L95.9608 2.98L90.8008 15.09H93.5508L93.1908 14.1L94.3008 11.48H99.5508L101.091 15.09H103.631L98.0708 2ZM95.0608 9.74L96.9408 5.32L98.8208 9.74H95.0608Z" fill="black"/>
</svg>
