<svg width="94" height="20" viewBox="0 0 94 20" fill="none" xmlns="http://www.w3.org/2000/svg">
<g clip-path="url(#clip0_3412_46511)">
<path d="M5.10235 2C2.28819 2 0 3.95731 0 6.36453V18H1.70078V6.36453C1.70078 4.75862 3.22496 3.45484 5.10235 3.45484H88.9015C90.7789 3.45484 92.3031 4.75862 92.3031 6.36453V18H94.0038V6.36453C94.0038 3.95731 91.7156 2 88.9015 2H5.10235Z" fill="white"/>
<path d="M15.6679 14.9367C15.6679 15.0517 15.5834 15.0911 15.4375 15.0911H14.1744C14.0285 15.0911 13.9824 15.0484 13.9824 14.9236V11.9876C13.9824 11.853 13.8711 11.7807 13.7137 11.7807H10.4043C10.2584 11.7807 10.1739 11.853 10.1739 11.9876V14.9236C10.1739 15.0484 10.0894 15.0911 9.95507 15.0911H8.66893C8.54991 15.0911 8.5 15.0484 8.5 14.9367V7.64609C8.5 7.53115 8.54991 7.46875 8.66893 7.46875H9.95507C10.0894 7.46875 10.1739 7.53115 10.1739 7.64609V10.4671C10.1739 10.6018 10.2584 10.6642 10.4043 10.6642H13.7137C13.8711 10.6642 13.9824 10.6018 13.9824 10.4671V7.64609C13.9824 7.53115 14.0285 7.46875 14.1744 7.46875H15.4375C15.5834 7.46875 15.6679 7.53115 15.6679 7.64609V14.9367Z" fill="white"/>
<path d="M18.7174 15.1868C17.7845 15.1868 17.2969 14.5431 17.2969 13.9947V9.46267C17.2969 9.32802 17.3583 9.26562 17.5042 9.26562H18.7174C18.8364 9.26562 18.9247 9.32802 18.9247 9.46267V13.8403C18.9247 13.9651 18.9861 14.0275 19.1551 14.0275H21.3741C21.52 14.0275 21.616 13.9651 21.616 13.8403V9.46267C21.616 9.32802 21.6775 9.26562 21.8233 9.26562H23.0365C23.1709 9.26562 23.2554 9.32802 23.2554 9.46267V16.0702C23.2554 16.2344 23.194 16.3921 23.1095 16.5464L22.284 17.6991C22.2111 17.8042 22.1036 17.8666 21.9808 17.8666H21.8233C21.6775 17.8666 21.616 17.7944 21.616 17.6794V14.7533C21.616 14.6285 21.5316 14.576 21.3972 14.6088L19.0706 15.1671C18.9593 15.1868 18.8287 15.1868 18.7174 15.1868Z" fill="white"/>
<path d="M26.2686 15.177C25.5277 15.177 24.875 14.6581 24.875 13.9848V9.46267C24.875 9.32802 24.9364 9.26562 25.0823 9.26562H26.307C26.4184 9.26562 26.5028 9.32802 26.5028 9.46267V13.8403C26.5028 13.9651 26.5758 14.0177 26.7447 14.0177H28.9638C29.1097 14.0177 29.2057 13.9651 29.2057 13.8403V9.46267C29.2057 9.32802 29.2556 9.26562 29.4015 9.26562H30.6147C30.749 9.26562 30.8335 9.32802 30.8335 9.46267V14.9274C30.8335 15.0423 30.749 15.0817 30.6147 15.0817H29.4015C29.2556 15.0817 29.2057 15.039 29.2057 14.9142V14.7467C29.2057 14.6121 29.1097 14.5595 28.9753 14.6022L26.6487 15.1408C26.5297 15.1737 26.3953 15.1737 26.2725 15.1737L26.2686 15.177Z" fill="white"/>
<path d="M38.396 10.3915V14.9334C38.396 15.0483 38.3115 15.0877 38.1772 15.0877H36.964C36.8181 15.0877 36.7682 15.045 36.7682 14.9202V10.5426C36.7682 10.4079 36.6722 10.3357 36.5263 10.3357H34.3072C34.1383 10.3357 34.0653 10.4079 34.0653 10.5426V14.9202C34.0653 15.045 33.9809 15.0877 33.8695 15.0877H32.6448C32.4989 15.0877 32.4375 15.045 32.4375 14.9334V9.46869C32.4375 9.33404 32.4989 9.27164 32.6448 9.27164H33.8695C33.9809 9.27164 34.0653 9.33404 34.0653 9.46869V9.64603C34.0653 9.76097 34.1268 9.81023 34.3072 9.77082L36.6223 9.23223C36.7413 9.21253 36.8526 9.17969 36.9716 9.17969C37.774 9.17969 38.3922 9.75112 38.3922 10.3948L38.396 10.3915Z" fill="white"/>
<path d="M39.7812 13.9914V11.3773C39.7812 10.819 40.0615 10.392 40.6412 10.1227L41.9274 9.47906C42.1961 9.33457 42.461 9.27217 42.7759 9.27217H43.8892C44.0466 9.27217 44.1196 9.21962 44.1196 9.09483V6.94704C44.1196 6.8321 44.181 6.75 44.3 6.75H45.5363C45.6822 6.75 45.7436 6.8321 45.7436 6.94704V14.9339C45.7436 15.0489 45.6822 15.0883 45.5363 15.0883H44.3C44.1772 15.0883 44.1196 15.0456 44.1196 14.9208V14.7533C44.1196 14.6186 44.0466 14.5661 43.8892 14.6088L41.5511 15.1474C41.4168 15.1802 41.3093 15.1802 41.1864 15.1802C40.5568 15.1999 39.7812 14.704 39.7812 13.9881V13.9914ZM44.1196 13.8436V10.5562C44.1196 10.4117 44.0466 10.3395 43.8777 10.3395H41.6356C41.4667 10.3395 41.4052 10.4117 41.4052 10.5562V13.8436C41.4052 13.9684 41.4667 14.0209 41.6356 14.0209H43.8777C44.0466 14.0209 44.1196 13.9684 44.1196 13.8436Z" fill="white"/>
<path d="M48.5302 15.177C47.7662 15.177 47.125 14.6482 47.125 13.9848V11.3707C47.125 10.8124 47.4053 10.3855 47.9735 10.1162L49.2711 9.47252C49.5399 9.32802 49.8048 9.26562 50.1081 9.26562H52.8839C53.0182 9.26562 53.0912 9.32802 53.0912 9.46267V14.9274C53.0912 15.0423 53.0182 15.0817 52.8839 15.0817H51.6476C51.5132 15.0817 51.4672 15.039 51.4672 14.9142V14.7467C51.4672 14.6121 51.3827 14.5595 51.2253 14.6022L48.8987 15.1408C48.7644 15.1737 48.6569 15.1737 48.534 15.1737L48.5302 15.177ZM51.4633 13.8371V10.5497C51.4633 10.4052 51.3789 10.3329 51.2215 10.3329H48.9794C48.8104 10.3329 48.749 10.4052 48.749 10.5497V13.8371C48.749 13.9618 48.8104 14.0144 48.9794 14.0144H51.2215C51.3789 14.0144 51.4633 13.9618 51.4633 13.8371Z" fill="white"/>
<path d="M56.3466 7.79762C56.3466 7.92241 56.2621 7.96182 56.1393 7.96182H54.9261C54.7687 7.96182 54.7188 7.91913 54.7188 7.79762V6.94704C54.7188 6.8321 54.7648 6.75 54.9261 6.75H56.1393C56.2621 6.75 56.3466 6.8321 56.3466 6.94704V7.79762ZM56.3466 14.9339C56.3466 15.0488 56.2621 15.0883 56.1393 15.0883H54.9261C54.7687 15.0883 54.7188 15.0456 54.7188 14.9339V9.46921C54.7188 9.33456 54.7648 9.27217 54.9261 9.27217H56.1393C56.2621 9.27217 56.3466 9.33456 56.3466 9.46921V14.9339Z" fill="white"/>
<path d="M59.7422 13.5968V9.66579C59.7422 9.08451 60.034 8.63788 60.6252 8.33903L62.0457 7.66579C62.2991 7.53115 62.6024 7.46875 62.8827 7.46875H65.8888C66.0347 7.46875 66.1077 7.53115 66.1077 7.65594V8.41456C66.1077 8.52951 66.0347 8.57877 65.8888 8.57877H61.681C61.5351 8.57877 61.4737 8.65102 61.4737 8.78566V13.784C61.4737 13.9187 61.5351 13.9811 61.681 13.9811H66.0078C66.1422 13.9811 66.2267 14.0336 66.2267 14.1354C66.2267 14.2504 66.1652 14.3423 66.0309 14.4047L64.9904 14.9039C64.7102 15.0385 64.4222 15.0911 64.1304 15.0911H61.5121C60.6521 15.0911 59.7422 14.5623 59.7422 13.5968Z" fill="white"/>
<path d="M68.6395 15.177C67.8755 15.177 67.2344 14.6482 67.2344 13.9848V11.3707C67.2344 10.8124 67.5146 10.3855 68.0829 10.1162L69.3805 9.47252C69.6493 9.32802 69.9142 9.26562 70.2175 9.26562H72.9932C73.1276 9.26562 73.2006 9.32802 73.2006 9.46267V14.9274C73.2006 15.0423 73.1276 15.0817 72.9932 15.0817H71.757C71.6226 15.0817 71.5766 15.039 71.5766 14.9142V14.7467C71.5766 14.6121 71.4921 14.5595 71.3347 14.6022L69.0081 15.1408C68.8737 15.1737 68.7662 15.1737 68.6434 15.1737L68.6395 15.177ZM71.5727 13.8371V10.5497C71.5727 10.4052 71.4883 10.3329 71.3308 10.3329H69.0887C68.9198 10.3329 68.8584 10.4052 68.8584 10.5497V13.8371C68.8584 13.9618 68.9198 14.0144 69.0887 14.0144H71.3308C71.4883 14.0144 71.5727 13.9618 71.5727 13.8371Z" fill="white"/>
<path d="M79.2932 10.1785C79.2932 10.2836 79.2087 10.3328 79.0743 10.3328H76.6863C76.5289 10.3328 76.4675 10.4051 76.4675 10.5397V14.9174C76.4675 15.0422 76.3715 15.0849 76.2486 15.0849H75.0239C74.878 15.0849 74.8281 15.0422 74.8281 14.9305V9.46585C74.8281 9.3312 74.878 9.26881 75.0239 9.26881H76.2486C76.3715 9.26881 76.4675 9.3312 76.4675 9.46585V9.63005C76.4675 9.745 76.5289 9.79426 76.6863 9.79426C76.7247 9.79426 76.7708 9.79426 76.8207 9.77455L77.5233 9.38046C77.7767 9.26552 78.0454 9.20312 78.3602 9.20312H79.0743C79.2087 9.20312 79.2932 9.26552 79.2932 9.38046V10.1785Z" fill="white"/>
<path d="M79.5312 13.9914V11.3773C79.5312 10.819 79.8115 10.392 80.3912 10.1227L81.6774 9.47906C81.9461 9.33457 82.211 9.27217 82.5259 9.27217H83.6431C83.8005 9.27217 83.8734 9.21962 83.8734 9.09483V6.94704C83.8734 6.8321 83.9349 6.75 84.0539 6.75H85.2901C85.436 6.75 85.4974 6.8321 85.4974 6.94704V14.9339C85.4974 15.0489 85.436 15.0883 85.2901 15.0883H84.0539C83.9349 15.0883 83.8734 15.0456 83.8734 14.9208V14.7533C83.8734 14.6186 83.8005 14.5661 83.6431 14.6088L81.3011 15.1474C81.1668 15.1802 81.0593 15.1802 80.9364 15.1802C80.3068 15.1999 79.5312 14.704 79.5312 13.9881V13.9914ZM83.8696 13.8436V10.5562C83.8696 10.4117 83.7966 10.3395 83.6277 10.3395H81.3856C81.2167 10.3395 81.1552 10.4117 81.1552 10.5562V13.8436C81.1552 13.9684 81.2167 14.0209 81.3856 14.0209H83.6277C83.7966 14.0209 83.8696 13.9684 83.8696 13.8436Z" fill="white"/>
</g>
<defs>
<clipPath id="clip0_3412_46511">
<rect width="94" height="20" fill="white"/>
</clipPath>
</defs>
</svg>
