<svg width="32" height="32" viewBox="0 0 32 32" fill="none" xmlns="http://www.w3.org/2000/svg">
<rect width="32" height="32" rx="16" fill="#F9E000"/>
<path d="M16 8C11.0293 8 7 11.1847 7 15.1154C7 17.673 8.70619 19.9145 11.2689 21.1686C11.0802 21.8705 10.5874 23.7143 10.4889 24.1086C10.3665 24.598 10.6673 24.5912 10.8661 24.4603C11.0208 24.3567 13.3319 22.7847 14.3295 22.1067C14.8716 22.1866 15.429 22.229 16 22.229C20.9707 22.229 25 19.0444 25 15.1154C25 11.1864 20.9707 8 16 8Z" fill="#371C1D"/>
<path d="M9.72482 13.8028H10.651C10.651 13.8028 10.6561 16.3468 10.651 16.9399C10.651 17.3733 11.6145 17.3784 11.6128 16.9467L11.6162 13.8368C11.6162 13.8368 11.9272 13.8385 12.5373 13.8385C13.1134 13.8385 13.1134 12.9328 12.5373 12.9328C11.8881 12.9328 9.71972 12.9141 9.71972 12.9141C9.17591 12.9141 9.17761 13.8028 9.71972 13.8028" fill="#F9E000"/>
<mask id="mask0_11948_68324" style="mask-type:luminance" maskUnits="userSpaceOnUse" x="9" y="12" width="4" height="6">
<path d="M9.72482 13.8028H10.651C10.651 13.8028 10.6561 16.3468 10.651 16.9399C10.651 17.3733 11.6145 17.3784 11.6128 16.9467L11.6162 13.8368C11.6162 13.8368 11.9272 13.8385 12.5373 13.8385C13.1134 13.8385 13.1134 12.9328 12.5373 12.9328C11.8881 12.9328 9.71972 12.9141 9.71972 12.9141C9.17591 12.9141 9.17761 13.8028 9.71972 13.8028" fill="white"/>
</mask>
<g mask="url(#mask0_11948_68324)">
<path d="M13.1155 12.918H9.17969V17.3823H13.1155V12.918Z" fill="#F9E000"/>
</g>
<path d="M14.1576 13.9685L14.6725 15.583H13.5985L14.1576 13.9685ZM13.5798 13.2123C13.3521 13.7136 12.5279 16.0843 12.256 16.713C12.0588 17.1668 12.9102 17.5373 13.1074 17.0835L13.2926 16.436H14.9869C14.9869 16.436 14.9291 16.4632 15.1534 17.0563C15.3353 17.5373 16.2156 17.2042 16.0337 16.7232C15.7737 16.0367 14.873 13.5624 14.7082 13.2123C14.6334 13.0509 14.3615 12.9336 14.0981 12.9336C13.8806 12.9336 13.6682 13.0135 13.5781 13.2123" fill="#F9E000"/>
<mask id="mask1_11948_68324" style="mask-type:luminance" maskUnits="userSpaceOnUse" x="12" y="12" width="5" height="6">
<path d="M14.1576 13.9685L14.6725 15.583H13.5985L14.1576 13.9685ZM13.5798 13.2123C13.3521 13.7136 12.5279 16.0843 12.256 16.713C12.0588 17.1668 12.9102 17.5373 13.1074 17.0835L13.2926 16.436H14.9869C14.9869 16.436 14.9291 16.4632 15.1534 17.0563C15.3353 17.5373 16.2156 17.2042 16.0337 16.7232C15.7737 16.0367 14.873 13.5624 14.7082 13.2123C14.6334 13.0509 14.3615 12.9336 14.0981 12.9336C13.8806 12.9336 13.6682 13.0135 13.5781 13.2123" fill="white"/>
</mask>
<g mask="url(#mask1_11948_68324)">
<path d="M16.2148 12.9336H12.0547V17.539H16.2148V12.9336Z" fill="#F9E000"/>
</g>
<path d="M16.3594 13.3601C16.3594 14.1657 16.3645 16.7623 16.3645 16.7623C16.3645 16.7623 16.2897 17.2789 16.7333 17.2789C17.1768 17.2789 18.1573 17.2738 18.5924 17.2738C19.0274 17.2738 19.0257 16.3477 18.5907 16.3477C18.1556 16.3477 17.3603 16.3426 17.3603 16.3426C17.3603 16.3426 17.3637 13.9413 17.362 13.3567C17.362 13.0746 17.1105 12.9336 16.8607 12.9336C16.6109 12.9336 16.3577 13.0763 16.3594 13.3584" fill="#F9E000"/>
<mask id="mask2_11948_68324" style="mask-type:luminance" maskUnits="userSpaceOnUse" x="16" y="12" width="3" height="6">
<path d="M16.3594 13.3601C16.3594 14.1657 16.3645 16.7623 16.3645 16.7623C16.3645 16.7623 16.2897 17.2789 16.7333 17.2789C17.1768 17.2789 18.1573 17.2738 18.5924 17.2738C19.0274 17.2738 19.0257 16.3477 18.5907 16.3477C18.1556 16.3477 17.3603 16.3426 17.3603 16.3426C17.3603 16.3426 17.3637 13.9413 17.362 13.3567C17.362 13.0746 17.1105 12.9336 16.8607 12.9336C16.6109 12.9336 16.3577 13.0763 16.3594 13.3584" fill="white"/>
</mask>
<g mask="url(#mask2_11948_68324)">
<path d="M19.0346 12.9336H16.2969V17.2773H19.0346V12.9336Z" fill="#F9E000"/>
</g>
<path d="M19.1369 13.2332C19.1471 13.5867 19.125 16.7815 19.125 17.0177C19.125 17.3916 20.0767 17.3899 20.0767 17.0177C20.0767 16.5844 20.0767 15.7602 20.0767 15.7602L20.3554 15.5359L21.5772 17.2013C21.8236 17.5276 22.6003 16.9379 22.3539 16.6133L21.0572 14.9054C21.0572 14.9054 21.9375 13.9537 22.2842 13.6088C22.4864 13.4082 21.8593 12.7761 21.6571 12.9783C21.4617 13.172 20.0818 14.5536 20.0818 14.5536C20.0818 14.5536 20.0937 13.6869 20.0818 13.2077C20.0767 13.0259 19.854 12.9375 19.6246 12.9375C19.3799 12.9375 19.1301 13.0378 19.1352 13.2332" fill="#F9E000"/>
<mask id="mask3_11948_68324" style="mask-type:luminance" maskUnits="userSpaceOnUse" x="19" y="12" width="4" height="6">
<path d="M19.1369 13.2332C19.1471 13.5867 19.125 16.7815 19.125 17.0177C19.125 17.3916 20.0767 17.3899 20.0767 17.0177C20.0767 16.5844 20.0767 15.7602 20.0767 15.7602L20.3554 15.5359L21.5772 17.2013C21.8236 17.5276 22.6003 16.9379 22.3539 16.6133L21.0572 14.9054C21.0572 14.9054 21.9375 13.9537 22.2842 13.6088C22.4864 13.4082 21.8593 12.7761 21.6571 12.9783C21.4617 13.172 20.0818 14.5536 20.0818 14.5536C20.0818 14.5536 20.0937 13.6869 20.0818 13.2077C20.0767 13.0259 19.854 12.9375 19.6246 12.9375C19.3799 12.9375 19.1301 13.0378 19.1352 13.2332" fill="white"/>
</mask>
<g mask="url(#mask3_11948_68324)">
<path d="M22.6003 12.7773H19.125V17.5289H22.6003V12.7773Z" fill="#F9E000"/>
</g>
</svg>
