<svg width="72" height="25" viewBox="0 0 72 25" fill="none" xmlns="http://www.w3.org/2000/svg">
<path d="M51.0508 20.4214H52.516V9.23554H51.0508V20.4214Z" fill="#2B2B2A"/>
<path d="M51.0508 6.65039H52.516V3.70654H51.0508V6.65039Z" fill="#2B2B2A"/>
<path d="M28.8922 19.2696C26.41 19.2696 24.5061 17.2829 24.5061 14.8311C24.5061 12.3772 26.41 10.3893 28.8922 10.3893C31.3743 10.3893 33.2774 12.3772 33.2774 14.8311C33.2774 17.2829 31.3743 19.2696 28.8922 19.2696ZM28.9321 9.04428C27.1996 9.04428 25.6171 9.72751 24.5473 11.0284V9.23589H23.1484V24.832H24.5847V18.5292C25.6289 19.8717 27.1996 20.6159 28.9321 20.6159C32.1277 20.6159 34.7195 18.0237 34.7195 14.8311C34.7195 11.6339 32.1277 9.04428 28.9321 9.04428Z" fill="#2B2B2A"/>
<path d="M42.4975 19.2694C40.0209 19.2694 38.1531 17.2828 38.1531 14.831C38.1531 12.3771 40.0209 10.3892 42.4975 10.3892C44.9721 10.3892 46.8391 12.3771 46.8391 14.831C46.8391 17.2828 44.9721 19.2694 42.4975 19.2694ZM42.4975 9.04415C39.3006 9.04415 36.7109 11.6338 36.7109 14.831C36.7109 18.0236 39.3006 20.6157 42.4975 20.6157C45.6898 20.6157 48.2804 18.0236 48.2804 14.831C48.2804 11.6338 45.6898 9.04415 42.4975 9.04415Z" fill="#2B2B2A"/>
<path d="M71.9987 10.4822V9.23554H69.4464V5.9837H68.006V9.23554H66.3008V10.4822H68.006V17.675C68.006 19.2932 68.9968 20.4214 70.7658 20.4214H71.9987V19.1457H70.7743C69.7729 19.1457 69.4464 18.4994 69.4464 17.5649V10.4822H71.9987Z" fill="#2B2B2A"/>
<path d="M11.0513 0.303871C8.96295 0.303871 7.26953 1.99849 7.26953 4.08431C7.26953 6.17307 8.96295 7.86475 11.0513 7.86475C13.1381 7.86475 14.8319 6.17307 14.8319 4.08431C14.8319 1.99849 13.1381 0.303871 11.0513 0.303871Z" fill="#2B2B2A"/>
<path d="M4.45456 9.04142C3.28136 9.04142 2.19219 9.50404 1.39591 10.3175V4.08445H0V20.4214H1.43625V12.8513C1.43625 11.3155 2.98806 10.3894 4.36968 10.3894C6.01603 10.3894 6.9993 11.4613 6.9993 12.9979V20.4214H8.43892V12.9979C8.43892 10.6684 6.85392 9.04142 4.45456 9.04142Z" fill="#2B2B2A"/>
<path d="M60.3686 9.04142C59.1929 9.04142 58.1016 9.50404 57.3079 10.3175V9.21495H55.9141V20.4214H57.3495V12.8513C57.3495 11.3155 58.8992 10.3894 60.2812 10.3894C61.9255 10.3894 62.9129 11.4613 62.9129 12.9979V20.4214H64.3509V12.9979C64.3509 10.6684 62.7659 9.04142 60.3686 9.04142Z" fill="#2B2B2A"/>
</svg>
