<svg width="76" height="12" viewBox="0 0 76 12" fill="none" xmlns="http://www.w3.org/2000/svg">
<g clip-path="url(#clip0_6933_105235)">
<path d="M9.08347 7.6615C8.49427 8.7908 7.3257 9.55675 5.96072 9.55675C4.01637 9.55675 2.44517 7.98556 2.44517 6.04121C2.44517 4.09685 4.01637 2.52566 5.96072 2.52566C7.21768 2.52566 8.31751 3.18359 8.93617 4.17541L11.2046 3.02648C10.1735 1.2196 8.22913 0.0117455 6 0.0117455C2.69067 0.00192558 0 2.6926 0 6.00193C0 9.31125 2.69067 12.0019 6 12.0019C8.27823 12.0019 10.2619 10.7351 11.2733 8.85954L9.08347 7.6615Z" fill="black"/>
<path d="M21.4573 4.50829H16.1251V0.1875H13.6406V11.8536H16.1644V6.90436H21.4573V11.8536H23.932V0.2857H21.4573V4.50829Z" fill="black"/>
<path d="M30.9828 0.1875L25.9648 11.8438H28.3315L29.4804 9.27097H35.3822L36.5999 11.8438H38.937L33.8699 0.1875H30.9828ZM30.482 6.924L32.4558 2.35771L34.4788 6.924H30.4722H30.482Z" fill="black"/>
<path d="M49.4155 7.44446L44.2895 0.2857L41.3828 0.1875V11.8536H43.3664V3.35935L49.3959 11.8536H51.5465V0.2857H49.4155V7.44446Z" fill="black"/>
<path d="M57.8493 7.14931H63.0539V4.93H57.8493V2.39645H63.7216V0.285156H55.4336V11.8531H64.3501V9.64358H57.8493V7.14931Z" fill="black"/>
<path d="M69.7108 9.7025V0.285156H67.2656V11.8531H75.7501V9.7025H69.7108Z" fill="black"/>
</g>
<defs>
<clipPath id="clip0_6933_105235">
<rect width="75.7512" height="12" fill="white"/>
</clipPath>
</defs>
</svg>
