<svg width="40" height="40" viewBox="0 0 40 40" fill="none" xmlns="http://www.w3.org/2000/svg">
<rect x="7.08594" y="13.957" width="25.8297" height="5.38118" stroke="black" stroke-width="2"/>
<path d="M9.23438 19.3379C9.59312 21.1316 10.3106 26.2258 10.3106 32.2527H29.6829C29.6829 29.7415 29.8981 23.6428 30.7591 19.3379" stroke="black" stroke-width="2"/>
<path d="M19.9961 13.957V32.253" stroke="black" stroke-width="2"/>
<path d="M11.0078 13.6248C10.335 12.952 9.95703 12.0395 9.95703 11.0881C9.95703 10.1366 10.335 9.22415 11.0078 8.55137C11.6806 7.87859 12.593 7.50063 13.5445 7.50063C14.9288 7.47651 16.2853 8.14818 17.4372 9.42804C18.5891 10.7079 19.4828 12.5366 20.0019 14.6755C20.521 12.5366 21.4147 10.7079 22.5666 9.42804C23.7185 8.14818 25.075 7.47651 26.4593 7.50063C27.4108 7.50063 28.3233 7.87859 28.996 8.55137C29.6688 9.22415 30.0468 10.1366 30.0468 11.0881C30.0468 12.0395 29.6688 12.952 28.996 13.6248" stroke="black" stroke-width="2"/>
</svg>
