<svg width="40" height="40" viewBox="0 0 40 40" fill="none" xmlns="http://www.w3.org/2000/svg">
<path d="M22.9763 16.4138C21.5853 14.8 19.8268 13 14.6333 13C7.51706 13 5.5 20 5.5 24.5C5.5 26.5448 4 31 4 31C4 31 7.16476 31 8.90767 31C12.0159 31 18.723 31 22.9763 31C27.2296 31 27.066 27.5862 27.066 25.2586C29.059 23.8 30.279 21.5 28.5 18.5C27.3829 16.6163 25.1023 15.7 22.9763 16.4138ZM22.9763 16.4138C21.2899 16.8763 19.5 19.5 19.8268 22" stroke="black" stroke-width="2"/>
<path d="M26.4096 16.7362L28.0175 15.1133C26.6307 13.028 28.2741 11.0706 29.1515 10.6226C30.5495 9.90873 33.3529 11.0745 32.4961 13.501C34.8529 13.501 36.179 14.9953 34.077 17.4657C32.6755 19.1129 30.6592 17.3959 30.6592 17.3959L28.5614 19.4087" stroke="black" stroke-width="2"/>
</svg>
