<svg width="40" height="40" viewBox="0 0 40 40" fill="none" xmlns="http://www.w3.org/2000/svg">
<circle cx="20" cy="20" r="14" stroke="black" stroke-width="2"/>
<path d="M22.4286 17.1439C22.4286 16.6259 22.3935 16.2134 22.3233 15.9065C22.2632 15.5995 22.1479 15.3213 21.9774 15.0719V15H25V15.0719C24.8296 15.3309 24.7093 15.6139 24.6391 15.9209C24.5789 16.2278 24.5489 16.6355 24.5489 17.1439V22.8417C24.5489 23.3597 24.5789 23.7722 24.6391 24.0791C24.7093 24.3861 24.8296 24.6691 25 24.9281V25H21.9774V24.9281C22.1479 24.6787 22.2632 24.4005 22.3233 24.0935C22.3935 23.7866 22.4286 23.3693 22.4286 22.8417V17.1439ZM15.4511 17.1439C15.4511 16.6355 15.416 16.2278 15.3459 15.9209C15.2857 15.6139 15.1704 15.3309 15 15.0719V15H18.0226V15.0719C17.8521 15.3213 17.7318 15.5995 17.6617 15.9065C17.6015 16.2134 17.5714 16.6259 17.5714 17.1439V22.8417C17.5714 23.3693 17.6015 23.7866 17.6617 24.0935C17.7318 24.4005 17.8521 24.6787 18.0226 24.9281V25H15V24.9281C15.1704 24.6691 15.2857 24.3861 15.3459 24.0791C15.416 23.7722 15.4511 23.3597 15.4511 22.8417V17.1439ZM16.5789 20.6403V19.3309H22.8947V20.6403H16.5789Z" fill="black"/>
</svg>
