<svg width="100" height="16" viewBox="0 0 100 16" fill="none" xmlns="http://www.w3.org/2000/svg">
<g clip-path="url(#clip0_6933_105306)">
<path fill-rule="evenodd" clip-rule="evenodd" d="M5 1.80469H10.4875V3.77969H8.775V7.10469H14.975V3.77969H13.175V1.80469H18.75V3.77969H16.95V13.5797H18.75V15.5547H13.175V13.5797H14.975V9.07969H8.775V13.5797H10.4875V15.5547H5V13.5797H6.7125V3.77969H5V1.80469Z" fill="white"/>
<path fill-rule="evenodd" clip-rule="evenodd" d="M70.3359 1.80469H81.4734V5.66719H79.5859V3.77969H74.1984V7.10469H78.8734V8.99219H74.1984V13.5797H79.5859V10.9672H81.5609V15.5547H70.3359V13.5797H72.1359V3.77969H70.3359V1.80469Z" fill="white"/>
<path fill-rule="evenodd" clip-rule="evenodd" d="M21.2656 1.80469H32.5906V5.66719H30.6156V3.77969H25.1406V7.10469H29.8031V8.99219H25.1406V13.5797H30.5281V10.9672H32.5906V15.5547H21.2656V13.5797H23.1531V3.77969H21.2656V1.80469Z" fill="white"/>
<path fill-rule="evenodd" clip-rule="evenodd" d="M73.5742 0H77.6117L78.5992 1.175H74.6492L73.5742 0Z" fill="white"/>
<path fill-rule="evenodd" clip-rule="evenodd" d="M92.5398 7.63906C91.1898 7.36406 90.2023 7.36406 88.7648 6.91406C87.5023 6.46406 87.3273 5.75156 87.3273 5.30156C87.3273 4.67656 87.7773 3.41406 89.8398 3.41406C91.9023 3.41406 93.1648 4.67656 93.1648 5.83906H95.1398V1.80156H93.2523V2.70156L93.3398 2.97656C93.3398 2.97656 93.2523 2.80156 93.0773 2.70156V2.61406C92.5398 2.16406 91.3649 1.53906 89.6649 1.53906C87.6899 1.53906 85.2648 2.80156 85.2648 5.31406C85.2648 7.65156 86.9774 8.46406 88.4149 8.81406C89.8524 9.26406 90.6648 9.26406 91.8273 9.53906C93.0898 9.90156 93.8023 10.6141 93.8023 11.7016C93.8023 12.6891 93.1773 14.0391 90.6523 14.0391C88.1273 14.0391 87.0523 12.6891 86.7023 10.7141H84.9023V15.5641H86.7898V14.6641L86.7023 14.4016C86.7023 14.4016 86.7898 14.5766 87.0648 14.6641V14.7516C87.9648 15.4766 89.3148 16.0141 90.8398 16.0141C92.7273 16.0141 95.8773 15.0266 95.8773 11.7891C95.8773 9.36406 94.6148 8.28906 92.5523 7.65156L92.5398 7.63906Z" fill="white"/>
<path fill-rule="evenodd" clip-rule="evenodd" d="M65.9367 13.5797V3.77969H67.7242V1.80469H62.7867L59.4617 9.89219L59.3742 10.2547L59.2867 9.89219L56.0492 1.80469H51.0117V3.77969H52.8117V13.5797H51.0117V15.5547H56.5867V13.5797H54.8742V4.59219V4.05469L55.0492 4.50469L58.8367 13.5797H59.9117L63.7742 4.50469L63.8617 3.95469V4.50469V13.5797H62.1617V15.5547H67.7242V13.5797H65.9367Z" fill="white"/>
<path fill-rule="evenodd" clip-rule="evenodd" d="M47.0656 13.5797L46.9781 10.7922C46.9781 9.97969 46.4406 9.07969 45.7156 8.62969C45.5406 8.54219 45.3531 8.45469 45.0906 8.45469C45.3531 8.45469 45.5406 8.45469 45.8031 8.36719C46.5156 8.00469 47.4156 7.01719 47.4156 5.40469C47.4156 4.14219 46.8781 3.25469 46.0656 2.61719C45.1656 1.99219 44.2656 1.80469 43.2781 1.80469H35.6406V3.77969H37.3531V13.5797H35.6406V15.5547H41.0281V13.5797H39.3156V9.26719H43.0906C44.3531 9.35469 44.8906 10.1672 44.8906 10.8797L45.0656 15.5547H48.7531V13.5797H47.0406H47.0656ZM43.4656 7.37969H39.3281V3.77969H43.2781C43.7281 3.77969 44.1781 3.77969 44.6281 3.95469C45.0781 4.21719 45.5281 4.76719 45.5281 5.56719C45.5281 6.64219 44.6281 7.36719 43.4656 7.36719V7.37969Z" fill="white"/>
</g>
<defs>
<clipPath id="clip0_6933_105306">
<rect width="90.8625" height="16" fill="white" transform="translate(5)"/>
</clipPath>
</defs>
</svg>
