<svg width="100" height="16" viewBox="0 0 100 16" fill="none" xmlns="http://www.w3.org/2000/svg">
<g clip-path="url(#clip0_6933_105588)">
<path d="M12.8733 1.04688H1V3.61885H5.31286V15.4231H8.61036V3.61885H12.8733V1.04688Z" fill="white"/>
<path d="M19.096 0.441406C15.1171 0.441406 11.8906 3.92509 11.8906 8.22068C11.8906 12.5163 15.1171 15.9999 19.096 15.9999C23.0749 15.9999 26.3014 12.5163 26.3014 8.22068C26.3014 3.92509 23.0749 0.441406 19.096 0.441406ZM19.096 13.0921C16.835 13.0921 15.0039 10.9117 15.0039 8.22068C15.0039 5.5297 16.8369 3.34928 19.096 3.34928C21.3551 3.34928 23.1881 5.5297 23.1881 8.22068C23.1881 10.9117 21.3551 13.0921 19.096 13.0921Z" fill="white"/>
<path d="M26.5019 15.2903V0.914062H30.9664L34.4175 10.6895L37.6305 0.914062H41.9933V15.2903H39.287V4.73556L35.5998 15.2903H33.2313C33.2313 15.2903 29.477 4.93901 29.5096 5.14247C29.5441 5.34592 29.5096 15.2903 29.5096 15.2903H26.5H26.5019Z" fill="white"/>
<path d="M65.5648 0C61.5859 0 58.3594 3.48369 58.3594 7.77927C58.3594 12.0749 61.5859 15.5585 65.5648 15.5585C69.5436 15.5585 72.7701 12.0749 72.7701 7.77927C72.7701 3.48369 69.5436 0 65.5648 0ZM65.5648 12.6507C63.3037 12.6507 61.4726 10.4702 61.4726 7.77927C61.4726 5.08829 63.3056 2.90787 65.5648 2.90787C67.8239 2.90787 69.6588 5.08829 69.6588 7.77927C69.6588 10.4702 67.8258 12.6507 65.5648 12.6507Z" fill="white"/>
<path d="M59.34 3.31929V0.816406H48.6836V2.06785V3.31929V6.66861V9.17149V15.2598H51.8295V9.17149H57.9197V6.66861H51.8295V3.31929H59.34Z" fill="white"/>
<path d="M92.4983 0.376894L85.6211 0.511251V14.9892H92.4541C92.4541 14.9892 98.408 15.0333 98.408 7.54772C98.408 0.062115 92.4983 0.376894 92.4983 0.376894ZM92.4311 12.2828H88.7554V3.10434H91.7324C91.7324 3.10434 95.362 3.41912 95.362 7.77996C95.362 12.1408 92.4311 12.2828 92.4311 12.2828Z" fill="white"/>
<path d="M84.9668 11.9896C84.7634 8.26796 83.0283 8.22381 83.0283 8.22381L83.0052 8.03763C83.0052 8.03763 85.2375 7.86297 85.2375 4.3908C85.2375 0.918629 81.3584 0.511719 81.3584 0.511719H72.9688V14.9896H76.2394L76.2164 9.30634H79.7787C81.8306 9.30634 81.8901 10.8265 81.9438 12.2603C82.011 14.0645 82.4179 14.9896 82.4179 14.9896H85.5292C84.9208 14.291 84.9649 11.9896 84.9649 11.9896H84.9668ZM80.2087 7.09713H76.2854C76.1722 7.09713 76.2854 3.03763 76.2854 3.03763H80.1876C80.1876 3.03763 81.9879 2.85721 81.9879 5.06834C81.9879 7.3908 80.2087 7.09713 80.2087 7.09713Z" fill="white"/>
</g>
<defs>
<clipPath id="clip0_6933_105588">
<rect width="97.4088" height="16" fill="white" transform="translate(1)"/>
</clipPath>
</defs>
</svg>
