<svg width="100" height="16" viewBox="0 0 100 16" fill="none" xmlns="http://www.w3.org/2000/svg">
<path d="M21.1735 0.312362H28.6009C34.987 0.312362 37.4859 4.06074 37.4859 8.02892C37.4859 12.0665 34.2813 15.6645 28.1844 15.6645H21.1851C21.1636 15.6675 21.1417 15.6658 21.1208 15.6596C21.1 15.6534 21.0807 15.6429 21.0643 15.6286C21.0478 15.6144 21.0346 15.5968 21.0256 15.577C21.0165 15.5573 21.0117 15.5358 21.0116 15.5141C21.0116 15.4331 21.0926 15.3637 21.2083 15.3637H22.5156C22.9205 15.3637 23.1866 15.1208 23.1866 14.6696V1.33044C23.1866 0.994939 23.0246 0.624728 22.4924 0.624728H21.162C21.1412 0.626504 21.1204 0.623922 21.1007 0.617148C21.081 0.610374 21.0629 0.599558 21.0477 0.585394C21.0324 0.57123 21.0203 0.554034 21.0121 0.534906C21.0039 0.515779 20.9998 0.495146 21 0.474332C21 0.404918 21.0231 0.312362 21.1735 0.312362ZM25.8127 14.9472C25.8127 15.2827 25.9631 15.3868 26.1829 15.3868H28.1497C32.9971 15.3868 34.7556 11.6732 34.7556 7.94794C34.7556 4.2227 32.893 0.613158 28.7976 0.613158H26.1216C25.844 0.613158 25.8208 0.844539 25.8208 0.94866L25.8127 14.9472ZM38.2263 0.312362C38.1106 0.312362 38.0065 0.35864 38.0065 0.451192C38.0053 0.472269 38.0088 0.493352 38.0167 0.512935C38.0245 0.532519 38.0367 0.550121 38.0521 0.564486C38.0676 0.578851 38.086 0.589625 38.1062 0.596039C38.1263 0.602452 38.1476 0.604347 38.1685 0.601589H39.4758C39.7766 0.601589 40.0658 0.809834 40.0658 1.38829V14.6811C40.0658 14.9588 39.8576 15.3753 39.4874 15.3753H38.1916C38.1698 15.3729 38.1477 15.3754 38.1269 15.3827C38.1062 15.39 38.0874 15.4019 38.0718 15.4174C38.0563 15.433 38.0444 15.4518 38.0371 15.4726C38.0298 15.4933 38.0273 15.5154 38.0297 15.5372C38.0297 15.5835 38.0181 15.6645 38.1916 15.6645H44.4852C44.5777 15.6645 44.705 15.6529 44.705 15.5604C44.705 15.4678 44.6819 15.3753 44.5199 15.3753H43.3051C43.1316 15.3753 42.6573 15.2712 42.6573 14.739V1.24946C42.6573 0.867678 42.9002 0.613158 43.3398 0.613158H44.5315C44.6356 0.613158 44.6934 0.555315 44.6934 0.474332C44.6934 0.393349 44.6356 0.323932 44.4968 0.323932H38.2263V0.312362ZM48.06 7.99422C48.06 3.74837 49.9573 0.312362 53.5206 0.312362C57.0145 0.312362 58.9812 3.74837 58.9812 7.99422C58.9812 12.2401 57.188 15.6761 53.5206 15.6761C49.9689 15.6876 48.06 12.2401 48.06 7.99422ZM53.5206 16C58.5879 16 61.7809 12.4136 61.7809 8.00578C61.7809 3.59797 58.6226 0 53.5206 0C48.4187 0 45.2603 3.58641 45.2603 7.99422C45.2603 12.402 48.5575 16 53.5206 16ZM77.9776 15.5719C75.9877 15.7802 74.8887 12.5177 73.8822 10.9675C73.1302 9.82213 71.5336 8.65365 69.9602 8.42227C72.5517 8.27187 75.4555 7.4389 75.4555 4.50036C75.4555 2.11714 73.9863 0.312362 68.5951 0.312362H62.3825C62.3627 0.310294 62.3426 0.312295 62.3235 0.318241C62.3045 0.324186 62.2868 0.333953 62.2717 0.346945C62.2565 0.359936 62.2442 0.375879 62.2354 0.393803C62.2266 0.411726 62.2215 0.431254 62.2205 0.451192C62.2211 0.471756 62.2258 0.491996 62.2343 0.510732C62.2428 0.529469 62.2549 0.546325 62.27 0.560323C62.2851 0.574321 62.3028 0.58518 62.3221 0.592264C62.3414 0.599349 62.362 0.602518 62.3825 0.601589H63.8055C64.1063 0.601589 64.3955 0.809834 64.3955 1.38829V14.6811C64.3955 14.9588 64.1873 15.3753 63.8171 15.3753H62.4172C62.3775 15.373 62.3385 15.3862 62.3083 15.4121C62.2781 15.4379 62.2591 15.4745 62.2553 15.5141C62.2582 15.555 62.2765 15.5933 62.3066 15.6212C62.3367 15.6491 62.3762 15.6646 62.4172 15.6645H69.0116C69.1041 15.6645 69.1851 15.6182 69.1851 15.5257C69.1851 15.4331 69.1273 15.3753 69 15.3753H67.6696C67.496 15.3753 67.0217 15.2596 67.0217 14.739V8.46276H67.7043C70.9668 8.46276 71.2097 12.0029 72.8294 14.0275C74.2177 15.7628 76.034 15.9826 77.0636 15.9826C77.405 15.9972 77.7469 15.97 78.0817 15.9017C78.2553 15.8438 78.29 15.543 77.9776 15.5777M67.6811 0.607375H68.6414C70.2842 0.607375 72.9451 1.25524 72.9451 4.35575C72.9451 7.20174 70.585 8.16197 68.3984 8.16197H66.9986V1.25524C66.9986 0.861895 67.2415 0.607375 67.6811 0.607375Z" fill="white"/>
</svg>
